<svg id="visual" viewBox="0 0 900 600" width="900" height="600" xmlns="http://www.w3.org/2000/svg" xmlns:xlink="http://www.w3.org/1999/xlink" version="1.1"><path d="M0 37L47 43L95 25L142 25L189 79L237 91L284 55L332 49L379 85L426 79L474 67L521 25L568 37L616 73L663 19L711 31L758 37L805 67L853 73L900 67L900 0L853 0L805 0L758 0L711 0L663 0L616 0L568 0L521 0L474 0L426 0L379 0L332 0L284 0L237 0L189 0L142 0L95 0L47 0L0 0Z" fill="#c5b7ff"></path><path d="M0 85L47 55L95 67L142 79L189 91L237 103L284 109L332 97L379 145L426 97L474 115L521 79L568 85L616 91L663 37L711 79L758 73L805 115L853 115L900 103L900 65L853 71L805 65L758 35L711 29L663 17L616 71L568 35L521 23L474 65L426 77L379 83L332 47L284 53L237 89L189 77L142 23L95 23L47 41L0 35Z" fill="#877ac1"></path><path d="M0 247L47 181L95 199L142 205L189 163L237 253L284 175L332 247L379 271L426 229L474 247L521 241L568 187L616 151L663 187L711 223L758 133L805 283L853 199L900 223L900 101L853 113L805 113L758 71L711 77L663 35L616 89L568 83L521 77L474 113L426 95L379 143L332 95L284 107L237 101L189 89L142 77L95 65L47 53L0 83Z" fill="#4b4286"></path><path d="M0 307L47 241L95 265L142 253L189 199L237 307L284 223L332 301L379 295L426 259L474 289L521 307L568 247L616 193L663 247L711 271L758 187L805 331L853 229L900 241L900 221L853 197L805 281L758 131L711 221L663 185L616 149L568 185L521 239L474 245L426 227L379 269L332 245L284 173L237 251L189 161L142 203L95 197L47 179L0 245Z" fill="#1b1a59"></path><path d="M0 355L47 397L95 457L142 403L189 415L237 403L284 361L332 427L379 439L426 463L474 409L521 433L568 463L616 331L663 319L711 439L758 373L805 415L853 445L900 367L900 239L853 227L805 329L758 185L711 269L663 245L616 191L568 245L521 305L474 287L426 257L379 293L332 299L284 221L237 305L189 197L142 251L95 263L47 239L0 305Z" fill="#1b1a59"></path><path d="M0 445L47 487L95 487L142 451L189 445L237 481L284 463L332 511L379 475L426 529L474 487L521 517L568 499L616 433L663 421L711 493L758 445L805 469L853 499L900 433L900 365L853 443L805 413L758 371L711 437L663 317L616 329L568 461L521 431L474 407L426 461L379 437L332 425L284 359L237 401L189 413L142 401L95 455L47 395L0 353Z" fill="#4b4286"></path><path d="M0 559L47 535L95 559L142 547L189 529L237 583L284 571L332 541L379 583L426 565L474 571L521 547L568 553L616 541L663 529L711 553L758 565L805 541L853 565L900 541L900 431L853 497L805 467L758 443L711 491L663 419L616 431L568 497L521 515L474 485L426 527L379 473L332 509L284 461L237 479L189 443L142 449L95 485L47 485L0 443Z" fill="#877ac1"></path><path d="M0 601L47 601L95 601L142 601L189 601L237 601L284 601L332 601L379 601L426 601L474 601L521 601L568 601L616 601L663 601L711 601L758 601L805 601L853 601L900 601L900 539L853 563L805 539L758 563L711 551L663 527L616 539L568 551L521 545L474 569L426 563L379 581L332 539L284 569L237 581L189 527L142 545L95 557L47 533L0 557Z" fill="#c5b7ff"></path></svg>