<svg id="visual" viewBox="0 0 900 600" width="900" height="600" xmlns="http://www.w3.org/2000/svg" xmlns:xlink="http://www.w3.org/1999/xlink" version="1.1"><path d="M0 55L50 37L100 67L150 55L200 49L250 19L300 55L350 31L400 49L450 31L500 49L550 37L600 37L650 43L700 67L750 61L800 19L850 25L900 55L900 0L850 0L800 0L750 0L700 0L650 0L600 0L550 0L500 0L450 0L400 0L350 0L300 0L250 0L200 0L150 0L100 0L50 0L0 0Z" fill="#0a211e"></path><path d="M0 145L50 67L100 127L150 151L200 145L250 49L300 145L350 115L400 151L450 97L500 73L550 127L600 103L650 97L700 97L750 103L800 97L850 121L900 97L900 53L850 23L800 17L750 59L700 65L650 41L600 35L550 35L500 47L450 29L400 47L350 29L300 53L250 17L200 47L150 53L100 65L50 35L0 53Z" fill="#03594a"></path><path d="M0 199L50 121L100 313L150 307L200 205L250 241L300 229L350 337L400 289L450 247L500 175L550 301L600 289L650 217L700 253L750 259L800 253L850 229L900 205L900 95L850 119L800 95L750 101L700 95L650 95L600 101L550 125L500 71L450 95L400 149L350 113L300 143L250 47L200 143L150 149L100 125L50 65L0 143Z" fill="#009772"></path><path d="M0 223L50 157L100 355L150 337L200 271L250 271L300 295L350 367L400 325L450 295L500 199L550 361L600 319L650 265L700 277L750 289L800 277L850 289L900 265L900 203L850 227L800 251L750 257L700 251L650 215L600 287L550 299L500 173L450 245L400 287L350 335L300 227L250 239L200 203L150 305L100 311L50 119L0 197Z" fill="#00cc8e"></path><path d="M0 439L50 385L100 451L150 433L200 427L250 415L300 439L350 469L400 391L450 433L500 379L550 421L600 493L650 421L700 421L750 463L800 385L850 463L900 433L900 263L850 287L800 275L750 287L700 275L650 263L600 317L550 359L500 197L450 293L400 323L350 365L300 293L250 269L200 269L150 335L100 353L50 155L0 221Z" fill="#00cc8e"></path><path d="M0 469L50 439L100 511L150 523L200 451L250 463L300 517L350 499L400 463L450 523L500 469L550 475L600 553L650 481L700 493L750 517L800 427L850 529L900 463L900 431L850 461L800 383L750 461L700 419L650 419L600 491L550 419L500 377L450 431L400 389L350 467L300 437L250 413L200 425L150 431L100 449L50 383L0 437Z" fill="#009772"></path><path d="M0 583L50 547L100 565L150 571L200 571L250 547L300 589L350 553L400 577L450 577L500 559L550 589L600 589L650 571L700 541L750 553L800 541L850 565L900 547L900 461L850 527L800 425L750 515L700 491L650 479L600 551L550 473L500 467L450 521L400 461L350 497L300 515L250 461L200 449L150 521L100 509L50 437L0 467Z" fill="#03594a"></path><path d="M0 601L50 601L100 601L150 601L200 601L250 601L300 601L350 601L400 601L450 601L500 601L550 601L600 601L650 601L700 601L750 601L800 601L850 601L900 601L900 545L850 563L800 539L750 551L700 539L650 569L600 587L550 587L500 557L450 575L400 575L350 551L300 587L250 545L200 569L150 569L100 563L50 545L0 581Z" fill="#0a211e"></path></svg>