<svg id="visual" viewBox="0 0 900 600" width="900" height="600" xmlns="http://www.w3.org/2000/svg" xmlns:xlink="http://www.w3.org/1999/xlink" version="1.1"><path d="M0 25L56 25L113 55L169 31L225 55L281 73L338 37L394 37L450 61L506 25L563 67L619 31L675 19L731 25L788 31L844 55L900 37L900 0L844 0L788 0L731 0L675 0L619 0L563 0L506 0L450 0L394 0L338 0L281 0L225 0L169 0L113 0L56 0L0 0Z" fill="#0e1f45"></path><path d="M0 265L56 217L113 211L169 103L225 97L281 187L338 169L394 127L450 229L506 121L563 229L619 223L675 205L731 199L788 259L844 289L900 97L900 35L844 53L788 29L731 23L675 17L619 29L563 65L506 23L450 59L394 35L338 35L281 71L225 53L169 29L113 53L56 23L0 23Z" fill="#2d518d"></path><path d="M0 283L56 259L113 241L169 139L225 127L281 265L338 247L394 199L450 301L506 157L563 289L619 253L675 229L731 217L788 277L844 355L900 127L900 95L844 287L788 257L731 197L675 203L619 221L563 227L506 119L450 227L394 125L338 167L281 185L225 95L169 101L113 209L56 215L0 263Z" fill="#448bdc"></path><path d="M0 319L56 349L113 331L169 175L225 187L281 283L338 325L394 277L450 367L506 253L563 361L619 337L675 295L731 253L788 373L844 385L900 205L900 125L844 353L788 275L731 215L675 227L619 251L563 287L506 155L450 299L394 197L338 245L281 263L225 125L169 137L113 239L56 257L0 281Z" fill="#4ba4fd"></path><path d="M0 385L56 481L113 463L169 307L225 313L281 343L338 439L394 391L450 457L506 337L563 451L619 433L675 421L731 295L788 469L844 481L900 307L900 203L844 383L788 371L731 251L675 293L619 335L563 359L506 251L450 365L394 275L338 323L281 281L225 185L169 173L113 329L56 347L0 317Z" fill="#448bdc"></path><path d="M0 541L56 565L113 523L169 475L225 487L281 505L338 577L394 529L450 523L506 529L563 517L619 547L675 511L731 481L788 535L844 571L900 493L900 305L844 479L788 467L731 293L675 419L619 431L563 449L506 335L450 455L394 389L338 437L281 341L225 311L169 305L113 461L56 479L0 383Z" fill="#2d518d"></path><path d="M0 601L56 601L113 601L169 601L225 601L281 601L338 601L394 601L450 601L506 601L563 601L619 601L675 601L731 601L788 601L844 601L900 601L900 491L844 569L788 533L731 479L675 509L619 545L563 515L506 527L450 521L394 527L338 575L281 503L225 485L169 473L113 521L56 563L0 539Z" fill="#0e1f45"></path></svg>